<svg width="633" height="146" viewBox="0 0 633 120" fill="none" xmlns="http://www.w3.org/2000/svg">
<g filter="url(#filter0_ddddd_51_16)">
<rect x="23" y="4" width="587" height="110" rx="55" fill="#202024"/>
<path fill-rule="evenodd" clip-rule="evenodd" d="M196.05 41.5397C195.356 42.2139 195.019 43.0666 195.019 44.0977C195.019 45.1486 195.376 46.0211 196.05 46.6754C196.764 47.3496 197.696 47.6867 198.865 47.6867C200.035 47.6867 200.967 47.3496 201.681 46.6754C202.395 46.0012 202.752 45.1486 202.752 44.0977C202.752 43.0666 202.395 42.2139 201.701 41.5397C201.007 40.8655 200.055 40.5284 198.885 40.5284C197.696 40.5284 196.744 40.8655 196.05 41.5397ZM195.435 76.637H202.355V50.78H195.435V76.637ZM209.136 53.9526C207.252 56.3717 206.3 59.5642 206.3 63.53H206.32V63.8274C206.32 67.8329 207.272 71.065 209.195 73.4841C211.119 75.9231 213.617 77.1327 216.73 77.1327C219.328 77.1327 221.43 76.2404 223.016 74.4359V75.8239C223.016 77.6284 222.501 79.0164 221.489 79.988C220.458 80.9597 219.031 81.4554 217.206 81.4554C214.747 81.4554 212.665 80.4837 210.94 78.5603L207.887 82.7641C208.819 83.9737 210.167 84.9453 211.971 85.6988C213.756 86.4523 215.6 86.829 217.504 86.829C220.002 86.829 222.183 86.3928 224.047 85.5203C225.911 84.6479 227.359 83.359 228.39 81.6933C229.421 80.0079 229.936 78.0448 229.936 75.7843V50.7998H223.671L223.393 53.2387C221.807 51.2955 219.606 50.3239 216.77 50.3239C213.558 50.3239 211.02 51.5334 209.136 53.9526ZM214.609 69.5381C213.677 68.2096 213.201 66.3655 213.201 64.0257C213.201 61.3488 213.677 59.3064 214.628 57.9778C215.58 56.6096 216.869 55.9355 218.535 55.9355C220.577 55.9355 222.064 56.7088 222.996 58.2951V69.1812C222.084 70.7477 220.577 71.5409 218.475 71.5409C216.829 71.5409 215.541 70.8667 214.609 69.5381ZM240.844 50.7803L241.062 53.7745C242.906 51.4744 245.385 50.3044 248.498 50.3044C251.235 50.3044 253.277 51.1174 254.606 52.7236C255.934 54.3297 256.628 56.729 256.668 59.9413V76.6374H249.767V60.1C249.767 58.6326 249.45 57.5817 248.816 56.9075C248.181 56.2531 247.11 55.916 245.643 55.916C243.7 55.916 242.252 56.7489 241.281 58.3947V76.6175H234.38V50.7803H240.844ZM262.139 41.5397C261.445 42.2139 261.108 43.0666 261.108 44.0977C261.108 45.1486 261.465 46.0211 262.139 46.6754C262.853 47.3496 263.785 47.6867 264.954 47.6867C266.124 47.6867 267.056 47.3496 267.77 46.6754C268.484 46.0012 268.841 45.1486 268.841 44.0977C268.841 43.0666 268.484 42.2139 267.79 41.5397C267.096 40.8655 266.144 40.5284 264.974 40.5284C263.785 40.5284 262.833 40.8655 262.139 41.5397ZM261.524 76.637H268.444V50.78H261.524V76.637ZM281.671 44.4547V50.7801H286.093V55.8365H281.671V68.7452C281.671 69.697 281.85 70.391 282.226 70.8074C282.583 71.2238 283.297 71.4221 284.328 71.4221C285.102 71.4221 285.776 71.3626 286.351 71.2635V76.4983C285.003 76.9147 283.595 77.113 282.167 77.113C277.329 77.113 274.85 74.6741 274.771 69.7763V55.8563H271.003V50.7999H274.771V44.4547H281.671ZM291.824 73.6234C294.203 75.9434 297.297 77.1133 301.084 77.1133C303.245 77.1133 305.208 76.6969 306.953 75.8641C308.718 75.0511 310.126 73.901 311.157 72.4337L307.766 68.6265C306.279 70.5499 304.197 71.5215 301.54 71.5215C299.815 71.5215 298.407 71.006 297.277 69.9947C296.147 68.9636 295.472 67.6152 295.254 65.9298H311.712V63.114C311.712 59.0293 310.681 55.8566 308.659 53.6358C306.636 51.3951 303.84 50.2847 300.311 50.2847C297.971 50.2847 295.869 50.8399 294.025 51.9503C292.181 53.0607 290.773 54.6471 289.762 56.6894C288.75 58.7318 288.255 61.0518 288.255 63.6494V64.3236C288.255 68.2101 289.444 71.3034 291.824 73.6234ZM296.979 57.2645C297.832 56.3325 298.942 55.8764 300.311 55.8764C301.758 55.8764 302.888 56.2929 303.682 57.1257C304.495 57.9783 304.891 59.1681 304.931 60.6949V61.2501H295.334C295.591 59.525 296.127 58.1964 296.979 57.2645Z" fill="white"/>
<path opacity="0.5" d="M159.309 28.4864L141.683 94.2992C141.593 94.5979 141.235 94.6876 141.026 94.4784L129.225 82.6781L138.068 49.6971C138.158 49.3983 137.889 49.1295 137.59 49.2191L104.609 58.0618L92.8685 46.3213C92.6594 46.1122 92.749 45.7537 93.0478 45.664L158.831 28.0084C159.129 27.9487 159.398 28.2175 159.309 28.4864Z" fill="#219653"/>
<path opacity="0.5" d="M129.225 82.6786L124.685 99.7068C124.595 100.006 124.236 100.095 124.027 99.8861L87.4016 63.2902C87.1924 63.0811 87.2821 62.7226 87.5808 62.633L104.609 58.0623L129.225 82.6786Z" fill="#219653"/>
<path d="M138.068 49.6969L129.226 82.678L104.609 58.0617L137.59 49.2189C137.889 49.1293 138.158 49.3982 138.068 49.6969Z" fill="#219653"/>
<path d="M374.071 76.546H364.424L345.646 45.9561V76.546H336V30.0545H345.646L364.456 60.7082V30.0545H374.071V76.546ZM380.437 58.952C380.437 55.5247 381.102 52.47 382.431 49.7878C383.76 47.1056 385.668 45.0301 388.154 43.5613C390.662 42.0924 393.567 41.358 396.868 41.358C401.563 41.358 405.389 42.7843 408.347 45.6368C411.327 48.4893 412.988 52.3636 413.331 57.2596L413.395 59.6226C413.395 64.9231 411.906 69.1805 408.926 72.3949C405.946 75.5882 401.949 77.1845 396.932 77.1845C391.916 77.1845 387.908 75.5882 384.907 72.3949C381.927 69.2018 380.437 64.8592 380.437 59.3671V58.952ZM389.73 59.6226C389.73 62.9008 390.351 65.4127 391.595 67.1583C392.838 68.8825 394.618 69.7447 396.932 69.7447C399.183 69.7447 400.941 68.8932 402.206 67.1902C403.471 65.4659 404.103 62.7199 404.103 58.952C404.103 55.7376 403.471 53.247 402.206 51.4802C400.941 49.7133 399.162 48.8299 396.868 48.8299C394.596 48.8299 392.838 49.7133 391.595 51.4802C390.351 53.2257 389.73 55.9398 389.73 59.6226ZM417.672 59.0158C417.672 53.6302 418.883 49.3408 421.305 46.1477C423.749 42.9546 427.083 41.358 431.305 41.358C434.692 41.358 437.49 42.614 439.698 45.1259V27.5H449.022V76.546H440.63L440.18 72.8739C437.865 75.7476 434.885 77.1845 431.241 77.1845C427.147 77.1845 423.856 75.5882 421.37 72.3949C418.905 69.1805 417.672 64.7208 417.672 59.0158ZM426.965 59.6864C426.965 62.9221 427.533 65.402 428.669 67.1263C429.805 68.8506 431.455 69.7127 433.621 69.7127C436.493 69.7127 438.519 68.51 439.698 66.1045V52.47C438.54 50.0646 436.536 48.8618 433.685 48.8618C429.205 48.8618 426.965 52.47 426.965 59.6864ZM472.238 77.1845C467.136 77.1845 462.977 75.6304 459.762 72.5227C456.568 69.4147 454.971 65.2743 454.971 60.1015V59.2074C454.971 55.7376 455.646 52.6403 456.997 49.9156C458.347 47.1695 460.255 45.062 462.72 43.5932C465.207 42.1031 468.036 41.358 471.209 41.358C475.968 41.358 479.709 42.8482 482.431 45.8284C485.175 48.8086 486.547 53.0341 486.547 58.505V62.2728H464.392C464.692 64.5293 465.593 66.3387 467.093 67.7011C468.615 69.0635 470.534 69.7447 472.849 69.7447C476.429 69.7447 479.226 68.4568 481.241 65.881L485.807 70.958C484.414 72.9166 482.527 74.4493 480.148 75.556C477.769 76.6418 475.132 77.1845 472.238 77.1845ZM471.177 48.8299C469.333 48.8299 467.833 49.4472 466.675 50.6819C465.539 51.9165 464.81 53.6834 464.489 55.9824H477.415V55.248C477.372 53.2044 476.815 51.6292 475.743 50.5222C474.671 49.394 473.149 48.8299 471.177 48.8299ZM492.334 72.0118C492.334 70.5429 492.827 69.3508 493.814 68.4355C494.821 67.5201 496.075 67.0625 497.575 67.0625C499.097 67.0625 500.351 67.5201 501.338 68.4355C502.345 69.3508 502.849 70.5429 502.849 72.0118C502.849 73.4592 502.356 74.6409 501.37 75.556C500.384 76.4501 499.119 76.897 497.575 76.897C496.054 76.897 494.8 76.4501 493.814 75.556C492.827 74.6409 492.334 73.4592 492.334 72.0118ZM520.855 41.9967V78.4297C520.855 82.2403 519.837 85.1994 517.801 87.3066C515.764 89.4355 512.828 90.5 508.99 90.5C507.383 90.5 505.85 90.3188 504.392 89.9569V82.6449C505.507 82.8366 506.482 82.9319 507.318 82.9319C510.127 82.9319 511.531 81.4528 511.531 78.4937V41.9967H520.855ZM510.791 33.056C510.791 31.6723 511.252 30.5334 512.174 29.6394C513.117 28.7453 514.392 28.2983 516 28.2983C517.608 28.2983 518.872 28.7453 519.794 29.6394C520.738 30.5334 521.209 31.6723 521.209 33.056C521.209 34.4609 520.727 35.6105 519.762 36.5045C518.819 37.3986 517.565 37.8456 516 37.8456C514.435 37.8456 513.171 37.3986 512.206 36.5045C511.263 35.6105 510.791 34.4609 510.791 33.056ZM546.965 66.9986C546.965 65.8704 546.397 64.987 545.261 64.3483C544.146 63.6884 542.345 63.103 539.858 62.5921C531.584 60.8679 527.447 57.3768 527.447 52.1188C527.447 49.0534 528.723 46.4989 531.273 44.4553C533.846 42.3905 537.201 41.358 541.338 41.358C545.754 41.358 549.28 42.3905 551.916 44.4553C554.575 46.5202 555.904 49.2024 555.904 52.502H546.611C546.611 51.1821 546.182 50.0965 545.325 49.245C544.467 48.3722 543.128 47.9358 541.305 47.9358C539.74 47.9358 538.53 48.287 537.672 48.9895C536.815 49.692 536.386 50.5861 536.386 51.6718C536.386 52.6936 536.868 53.5237 537.833 54.1623C538.819 54.7797 540.469 55.3225 542.785 55.7908C545.1 56.2378 547.051 56.7487 548.636 57.3235C553.546 59.1117 556 62.209 556 66.6154C556 69.7659 554.639 72.3204 551.916 74.279C549.194 76.2158 545.679 77.1845 541.37 77.1845C538.455 77.1845 535.861 76.6736 533.588 75.6518C531.337 74.6086 529.569 73.1931 528.283 71.4051C526.997 69.5957 526.354 67.6478 526.354 65.5617H535.164C535.25 67.2008 535.861 68.4568 536.997 69.3296C538.133 70.2023 539.655 70.6387 541.563 70.6387C543.342 70.6387 544.682 70.3088 545.582 69.6489C546.504 68.9677 546.965 68.0843 546.965 66.9986Z" fill="#8CC84B"/>
</g>
<defs>
<filter id="filter0_ddddd_51_16" x="0" y="0" width="633" height="194" filterUnits="userSpaceOnUse" color-interpolation-filters="sRGB">
<feFlood flood-opacity="0" result="BackgroundImageFix"/>
<feColorMatrix in="SourceAlpha" type="matrix" values="0 0 0 0 0 0 0 0 0 0 0 0 0 0 0 0 0 0 127 0" result="hardAlpha"/>
<feOffset/>
<feColorMatrix type="matrix" values="0 0 0 0 0 0 0 0 0 0 0 0 0 0 0 0 0 0 0.15 0"/>
<feBlend mode="normal" in2="BackgroundImageFix" result="effect1_dropShadow_51_16"/>
<feColorMatrix in="SourceAlpha" type="matrix" values="0 0 0 0 0 0 0 0 0 0 0 0 0 0 0 0 0 0 127 0" result="hardAlpha"/>
<feOffset dy="4"/>
<feGaussianBlur stdDeviation="4"/>
<feColorMatrix type="matrix" values="0 0 0 0 0 0 0 0 0 0 0 0 0 0 0 0 0 0 0.15 0"/>
<feBlend mode="normal" in2="effect1_dropShadow_51_16" result="effect2_dropShadow_51_16"/>
<feColorMatrix in="SourceAlpha" type="matrix" values="0 0 0 0 0 0 0 0 0 0 0 0 0 0 0 0 0 0 127 0" result="hardAlpha"/>
<feOffset dy="14"/>
<feGaussianBlur stdDeviation="7"/>
<feColorMatrix type="matrix" values="0 0 0 0 0 0 0 0 0 0 0 0 0 0 0 0 0 0 0.13 0"/>
<feBlend mode="normal" in2="effect2_dropShadow_51_16" result="effect3_dropShadow_51_16"/>
<feColorMatrix in="SourceAlpha" type="matrix" values="0 0 0 0 0 0 0 0 0 0 0 0 0 0 0 0 0 0 127 0" result="hardAlpha"/>
<feOffset dy="32"/>
<feGaussianBlur stdDeviation="9.5"/>
<feColorMatrix type="matrix" values="0 0 0 0 0 0 0 0 0 0 0 0 0 0 0 0 0 0 0.08 0"/>
<feBlend mode="normal" in2="effect3_dropShadow_51_16" result="effect4_dropShadow_51_16"/>
<feColorMatrix in="SourceAlpha" type="matrix" values="0 0 0 0 0 0 0 0 0 0 0 0 0 0 0 0 0 0 127 0" result="hardAlpha"/>
<feOffset dy="57"/>
<feGaussianBlur stdDeviation="11.5"/>
<feColorMatrix type="matrix" values="0 0 0 0 0 0 0 0 0 0 0 0 0 0 0 0 0 0 0.02 0"/>
<feBlend mode="normal" in2="effect4_dropShadow_51_16" result="effect5_dropShadow_51_16"/>
<feBlend mode="normal" in="SourceGraphic" in2="effect5_dropShadow_51_16" result="shape"/>
</filter>
</defs>
</svg>
